<svg width="250" height="300" viewBox="0 0 250 300" fill="none" xmlns="http://www.w3.org/2000/svg">
<path d="M157.417 0L65.0924 159.911H249.742L157.417 0Z" fill="#EDC356"/>
<path d="M78.7398 215.684H24.9958C23.0236 215.684 21.1321 216.467 19.7368 217.861C18.3416 219.255 17.5567 221.145 17.5547 223.118V223.162H86.1809V223.118C86.1789 221.145 85.3941 219.255 83.9988 217.861C82.6036 216.467 80.712 215.684 78.7398 215.684V215.684Z" fill="white"/>
<path fill-rule="evenodd" clip-rule="evenodd" d="M78.7395 216.15C80.5882 216.15 82.3611 216.884 83.669 218.191C84.8769 219.398 85.5967 221.002 85.7011 222.696H18.034C18.1384 221.002 18.8582 219.398 20.0661 218.191C21.3739 216.884 23.1469 216.15 24.9955 216.15H78.7395ZM84.3281 217.531C82.8454 216.05 80.8354 215.218 78.7395 215.218H24.9955C22.8997 215.218 20.8896 216.05 19.4069 217.531C17.9242 219.012 17.0902 221.021 17.0881 223.117V223.629H86.647L86.647 223.117C86.6449 221.021 85.8108 219.012 84.3281 217.531Z" fill="#3C3C7A"/>
<path fill-rule="evenodd" clip-rule="evenodd" d="M72.044 223.005C71.7703 222.861 71.432 222.967 71.2884 223.24L31.4565 299.181C31.313 299.454 31.4185 299.793 31.6922 299.936C31.9659 300.08 32.3042 299.974 32.4477 299.701L72.2796 223.76C72.4232 223.486 72.3177 223.148 72.044 223.005Z" fill="#3C3C7A"/>
<path fill-rule="evenodd" clip-rule="evenodd" d="M31.6922 223.005C31.4185 223.148 31.313 223.486 31.4565 223.76L71.2884 299.701C71.432 299.974 71.7703 300.08 72.044 299.936C72.3177 299.793 72.4232 299.454 72.2796 299.181L32.4477 223.24C32.3042 222.967 31.9659 222.861 31.6922 223.005Z" fill="#3C3C7A"/>
<path d="M161.138 298.439C161.138 298.439 149.431 298.439 143.926 298.405C139.296 298.375 130.178 299.327 130.036 297.111C129.749 292.652 132.722 290.175 132.353 287.362C136.015 287.47 139.648 286.676 142.931 285.049C144.125 286.215 150.779 292.499 156.245 293.143C162.274 293.854 161.138 298.439 161.138 298.439Z" fill="#B3474C"/>
<path fill-rule="evenodd" clip-rule="evenodd" d="M129.375 298.775C129.374 299.084 129.623 299.336 129.932 299.338C132.686 299.355 140.535 299.363 147.694 299.367C151.273 299.369 154.681 299.37 157.194 299.371C158.45 299.371 159.483 299.371 160.201 299.371L161.324 299.371C161.324 299.371 161.324 299.371 161.324 298.812C161.324 298.252 161.324 298.252 161.324 298.252L160.201 298.252C159.483 298.252 158.45 298.252 157.194 298.252C154.681 298.251 151.274 298.25 147.694 298.248C140.534 298.244 132.689 298.235 129.939 298.219C129.629 298.217 129.377 298.466 129.375 298.775ZM161.884 298.812C161.884 298.503 161.633 298.252 161.324 298.252V298.812V299.371C161.633 299.371 161.884 299.121 161.884 298.812Z" fill="#3C3C7A"/>
<path fill-rule="evenodd" clip-rule="evenodd" d="M146.448 290.279C146.448 290.279 146.447 290.279 146.729 290.524L146.447 290.279C146.313 290.435 146.329 290.671 146.485 290.806C146.641 290.94 146.876 290.924 147.011 290.768L147.011 290.768C147.011 290.768 147.011 290.768 147.011 290.768L147.011 290.768L147.011 290.768M151.054 290.862C151.018 290.711 150.971 290.549 150.914 290.377L150.914 290.377C150.636 289.543 150.269 289.239 149.948 289.143C149.604 289.04 149.183 289.135 148.723 289.375C148.272 289.611 147.844 289.957 147.523 290.252C147.364 290.398 147.235 290.529 147.145 290.622C147.101 290.669 147.067 290.706 147.044 290.732C147.032 290.744 147.024 290.754 147.018 290.76L147.012 290.767L147.011 290.768M151.622 290.141C151.673 290.295 151.718 290.446 151.755 290.591ZM151.891 291.329C151.981 292.187 151.786 292.824 151.395 293.191C151.11 293.457 150.736 293.555 150.378 293.453C150.025 293.352 149.743 293.073 149.584 292.691L149.584 292.69C149.491 292.466 149.548 292.244 149.624 292.083C149.703 291.918 149.828 291.759 149.969 291.616C150.242 291.34 150.629 291.07 151.054 290.862M151.891 291.329C152.122 291.258 152.349 291.217 152.558 291.216C152.902 291.213 153.169 291.315 153.354 291.533C153.616 291.844 153.72 292.14 153.762 292.35C153.783 292.456 153.788 292.542 153.788 292.598C153.788 292.625 153.787 292.646 153.787 292.657C153.786 292.662 153.786 292.666 153.786 292.667C153.786 292.667 153.786 292.667 153.786 292.667C153.786 292.667 153.786 292.667 153.786 292.667L153.786 292.665L153.786 292.664L153.786 292.663L153.786 292.663C153.786 292.663 153.786 292.663 154.154 292.715L153.786 292.663M151.167 291.646C151.182 292.199 151.027 292.513 150.885 292.646C150.778 292.746 150.671 292.761 150.583 292.736C150.494 292.71 150.374 292.628 150.286 292.434C150.288 292.426 150.292 292.416 150.299 292.403C150.328 292.34 150.392 292.25 150.499 292.141C150.663 291.976 150.896 291.8 151.167 291.646ZM150.282 292.449C150.282 292.449 150.282 292.448 150.282 292.447C150.282 292.448 150.282 292.449 150.282 292.449ZM146.448 290.279L146.448 290.279ZM146.448 290.279L146.449 290.278ZM146.449 290.278L146.451 290.275ZM146.451 290.275L146.46 290.265ZM146.46 290.265C146.467 290.257 146.477 290.246 146.491 290.231ZM146.491 290.231C146.517 290.201 146.556 290.159 146.605 290.108ZM146.605 290.108C146.704 290.004 146.845 289.862 147.018 289.703ZM147.018 289.703C147.361 289.387 147.844 288.993 148.377 288.714ZM148.377 288.714C148.902 288.439 149.541 288.243 150.161 288.428ZM150.161 288.428C150.803 288.619 151.302 289.179 151.622 290.141Z" fill="#3C3C7A"/>
<path d="M128.493 208.983C124.296 196.758 67.748 190.05 67.748 190.05L49.8495 190.531C48.956 193.486 47.3461 213.311 60.4505 220.541C74.3571 228.214 105.813 218.254 105.813 218.254C105.813 218.254 103.97 256.529 130.86 287.976L148.406 286.11C140.894 256.547 132.552 220.78 128.493 208.983Z" fill="#3C4564"/>
<path d="M117.86 298.439C117.86 298.439 106.153 298.439 100.648 298.405C96.018 298.375 86.8999 299.327 86.7582 297.111C86.4709 292.652 89.4443 290.175 89.075 287.362C92.7375 287.47 96.3705 286.676 99.6537 285.049C100.848 286.215 107.501 292.499 112.967 293.143C118.996 293.854 117.86 298.439 117.86 298.439Z" fill="#B3474C"/>
<path fill-rule="evenodd" clip-rule="evenodd" d="M86.0979 298.775C86.096 299.084 86.345 299.336 86.6541 299.338C89.4084 299.355 97.2577 299.363 104.416 299.367C107.996 299.369 111.403 299.37 113.916 299.371C115.172 299.371 116.205 299.371 116.924 299.371L118.046 299.371C118.046 299.371 118.047 299.371 118.047 298.812C118.047 298.252 118.046 298.252 118.046 298.252L116.924 298.252C116.205 298.252 115.173 298.252 113.916 298.252C111.404 298.251 107.996 298.25 104.417 298.248C97.2567 298.244 89.4114 298.235 86.6609 298.219C86.3519 298.217 86.0998 298.466 86.0979 298.775ZM118.606 298.812C118.606 298.503 118.356 298.252 118.047 298.252V298.812V299.371C118.356 299.371 118.606 299.121 118.606 298.812Z" fill="#3C3C7A"/>
<path fill-rule="evenodd" clip-rule="evenodd" d="M103.17 290.279C103.17 290.279 103.17 290.279 103.452 290.524L103.17 290.279C103.035 290.435 103.051 290.671 103.207 290.806C103.363 290.94 103.598 290.924 103.733 290.768L103.733 290.768L103.733 290.768L103.733 290.768L103.735 290.767L103.74 290.76C103.746 290.754 103.754 290.744 103.766 290.732C103.789 290.706 103.823 290.669 103.868 290.622C103.957 290.529 104.086 290.398 104.245 290.252C104.566 289.957 104.994 289.611 105.445 289.375C105.905 289.135 106.327 289.04 106.67 289.143C106.991 289.239 107.359 289.543 107.636 290.377L107.636 290.377C107.694 290.549 107.74 290.711 107.776 290.862C107.351 291.07 106.964 291.34 106.691 291.616C106.55 291.759 106.425 291.918 106.346 292.083C106.27 292.244 106.214 292.466 106.306 292.69L106.306 292.691C106.465 293.073 106.747 293.352 107.1 293.453C107.458 293.555 107.832 293.457 108.117 293.191C108.508 292.824 108.703 292.187 108.613 291.329C108.844 291.258 109.071 291.217 109.281 291.216C109.625 291.213 109.892 291.315 110.076 291.533C110.338 291.844 110.443 292.14 110.484 292.35C110.505 292.456 110.51 292.542 110.51 292.598C110.511 292.625 110.509 292.646 110.509 292.657C110.508 292.662 110.508 292.666 110.508 292.667C110.481 292.869 110.622 293.056 110.825 293.085C111.029 293.114 111.218 292.972 111.247 292.768L110.878 292.715C111.247 292.768 111.247 292.768 111.247 292.768L111.247 292.767L111.247 292.767L111.247 292.765L111.248 292.76C111.248 292.757 111.249 292.753 111.249 292.748C111.251 292.739 111.252 292.726 111.253 292.712C111.255 292.682 111.257 292.643 111.257 292.594C111.256 292.497 111.247 292.364 111.216 292.206C111.153 291.887 111 291.472 110.646 291.052L110.646 291.052C110.281 290.619 109.774 290.466 109.275 290.469C109.01 290.471 108.74 290.517 108.477 290.591C108.44 290.446 108.395 290.295 108.344 290.141M107.889 291.646C107.904 292.199 107.749 292.513 107.607 292.646C107.5 292.746 107.393 292.761 107.305 292.736C107.216 292.71 107.096 292.628 107.008 292.434C107.01 292.426 107.014 292.416 107.021 292.403C107.051 292.34 107.114 292.25 107.222 292.141C107.385 291.976 107.618 291.8 107.889 291.646ZM107.004 292.449C107.004 292.449 107.004 292.448 107.004 292.447C107.004 292.448 107.004 292.449 107.004 292.449ZM103.17 290.279L103.17 290.279ZM103.17 290.279L103.171 290.278ZM103.171 290.278L103.173 290.275ZM103.173 290.275L103.182 290.265ZM103.182 290.265C103.189 290.257 103.199 290.246 103.213 290.231ZM103.213 290.231C103.239 290.201 103.278 290.159 103.327 290.108ZM103.327 290.108C103.426 290.004 103.567 289.862 103.74 289.703ZM103.74 289.703C104.083 289.387 104.566 288.993 105.1 288.714ZM105.1 288.714C105.625 288.439 106.263 288.243 106.883 288.428ZM106.883 288.428C107.525 288.619 108.024 289.179 108.344 290.141Z" fill="#3C3C7A"/>
<path d="M104.765 208.869C102.166 200.49 60.4502 190.286 60.4502 190.286L24.9796 191.087C24.0879 194.041 20.6686 211.442 33.7731 218.672C47.6796 226.345 83.6856 222.877 83.6856 222.877C83.6856 222.877 70.4114 246.524 87.159 287.979L104.035 286.114C101.101 264.134 108.458 220.782 104.765 208.869Z" fill="#424D76"/>
<path d="M65.4815 184.388C65.4815 184.388 71.0049 164.731 75.5453 143.652C75.5453 143.652 86.7881 139.828 93.2666 132.597C93.2666 132.597 82.8689 114.182 74.8663 111.397C67.9774 109 58.0535 106.689 58.0535 106.689L35.7134 105.029C35.7134 105.029 19.3669 109.481 13.5488 114.081C6.78668 119.426 3.42337 136.949 3.42337 136.949C3.42337 136.949 11.2692 137.526 22.7358 144.344L25.4295 184.388C24.6553 189.516 22.7993 196.387 22.7993 196.387C22.7993 196.387 45.309 201.679 74.6257 190.492C74.6257 190.492 64.3977 188.348 65.4815 184.388Z" fill="#B3474C"/>
<path d="M93.2359 132.732L100.615 143.898C100.615 143.898 120.862 117.282 123.01 114.216L129.671 116.435C129.671 116.435 113.893 164.977 101.084 164.977C90.8986 164.977 75.7758 143.652 75.7758 143.652C75.7758 143.652 89.1432 137.375 93.2359 132.732Z" fill="#E49647"/>
<path d="M123.009 114.238C123.009 114.238 123.034 107.422 124.546 105.152C126.059 102.881 130.288 94.7054 131.855 95.5542C132.577 95.9459 129.935 102.755 129.935 102.755C129.935 102.755 131.392 102.059 132.448 103.195C133.504 104.331 133.627 103.381 135.078 104.016C136.53 104.65 135.963 105.818 137.729 105.944C139.001 106.034 138.906 107.579 138.102 109.116C137.03 111.197 131.174 117.025 129.352 116.435C127.529 115.846 123.009 114.238 123.009 114.238Z" fill="#E49647"/>
<path fill-rule="evenodd" clip-rule="evenodd" d="M130.796 110.076C130.9 110.346 131.095 110.561 131.387 110.686C131.968 110.935 132.579 110.692 133.101 110.316C133.341 110.144 133.578 109.933 133.808 109.7C133.728 109.96 133.67 110.214 133.646 110.451C133.615 110.745 133.632 111.038 133.74 111.291C133.853 111.555 134.057 111.758 134.354 111.868C134.896 112.069 135.406 111.979 135.849 111.741C136.284 111.508 136.662 111.13 136.972 110.737C137.556 109.996 137.953 109.134 138.08 108.859C138.088 108.842 138.095 108.827 138.101 108.814L137.593 108.578C137.587 108.591 137.58 108.606 137.573 108.623C137.446 108.897 137.074 109.705 136.533 110.39C136.245 110.755 135.924 111.066 135.585 111.248C135.253 111.426 134.912 111.478 134.549 111.344C134.395 111.286 134.307 111.194 134.255 111.072C134.198 110.938 134.177 110.752 134.202 110.509C134.253 110.021 134.48 109.403 134.778 108.778C134.91 108.5 135.053 108.226 135.197 107.967C135.406 107.661 135.591 107.372 135.744 107.125C135.885 106.895 135.999 106.701 136.077 106.564C136.116 106.496 136.147 106.442 136.167 106.405C136.178 106.386 136.186 106.372 136.191 106.362L136.197 106.351L136.199 106.346C136.2 106.346 136.2 106.346 135.954 106.213C135.724 106.052 135.724 106.053 135.724 106.053L135.722 106.057L135.714 106.067C135.708 106.077 135.698 106.09 135.686 106.108C135.662 106.144 135.626 106.196 135.582 106.262C135.494 106.394 135.37 106.584 135.227 106.813C135.074 107.06 134.898 107.353 134.72 107.673C134.55 107.921 134.363 108.179 134.166 108.432C133.725 108.999 133.243 109.525 132.775 109.862C132.296 110.206 131.908 110.3 131.607 110.172C131.458 110.108 131.37 110.009 131.318 109.875C131.263 109.73 131.245 109.533 131.274 109.281C131.331 108.777 131.565 108.146 131.866 107.511C132.165 106.883 132.519 106.275 132.799 105.822C132.939 105.596 133.061 105.41 133.147 105.281C133.19 105.216 133.224 105.166 133.247 105.132C133.259 105.115 133.268 105.102 133.274 105.093L133.28 105.083L133.282 105.081C133.282 105.081 133.282 105.081 133.053 104.92C132.823 104.76 132.823 104.76 132.823 104.76L132.823 104.761L132.821 104.764L132.813 104.775C132.807 104.784 132.797 104.798 132.785 104.816C132.76 104.852 132.725 104.904 132.681 104.971C132.592 105.105 132.467 105.296 132.324 105.527C132.037 105.99 131.671 106.617 131.36 107.271C131.052 107.92 130.786 108.619 130.718 109.218C130.683 109.518 130.696 109.816 130.796 110.076ZM135.954 106.213L135.724 106.053L136.199 106.346L135.954 106.213Z" fill="#CB884B"/>
<path fill-rule="evenodd" clip-rule="evenodd" d="M125.655 104.413C125.109 104.645 124.752 105.083 124.44 105.61L124.922 105.895C125.211 105.405 125.491 105.09 125.873 104.928C126.259 104.765 126.8 104.735 127.657 104.939C128.529 105.146 129.64 105.483 130.537 105.77C130.985 105.914 131.378 106.044 131.658 106.138C131.739 106.165 131.81 106.19 131.871 106.21C131.863 106.239 131.854 106.27 131.844 106.303C131.783 106.499 131.682 106.753 131.523 106.992C131.363 107.231 131.151 107.449 130.867 107.589C130.587 107.726 130.217 107.797 129.724 107.713C129.724 107.713 129.724 107.713 129.724 107.713L129.719 107.712C129.355 107.65 129.076 107.602 128.865 107.572C128.659 107.542 128.494 107.524 128.368 107.531C128.239 107.538 128.078 107.576 127.978 107.728C127.935 107.791 127.917 107.856 127.907 107.904C127.897 107.948 127.891 107.996 127.887 108.033L127.886 108.039C127.883 108.064 127.879 108.098 127.875 108.139C127.847 108.387 127.787 108.913 127.667 109.533C127.525 110.261 127.304 111.091 126.966 111.726L127.459 111.989C127.837 111.28 128.071 110.385 128.216 109.64C128.341 108.995 128.404 108.444 128.431 108.2C128.435 108.16 128.439 108.129 128.442 108.107C128.442 108.101 128.443 108.095 128.444 108.089C128.512 108.091 128.618 108.101 128.785 108.125C128.988 108.155 129.26 108.201 129.629 108.265C130.227 108.367 130.717 108.286 131.114 108.091C131.508 107.897 131.79 107.601 131.988 107.303C132.187 107.005 132.307 106.698 132.379 106.468C132.414 106.353 132.438 106.255 132.453 106.185C132.461 106.15 132.466 106.122 132.47 106.102C132.472 106.092 132.473 106.084 132.474 106.078L132.475 106.071L132.475 106.068L132.475 106.068L132.476 106.067C132.476 106.067 132.476 106.067 132.199 106.027C132.29 105.762 132.29 105.762 132.29 105.762L132.259 105.751C132.238 105.744 132.208 105.734 132.169 105.721C132.091 105.694 131.978 105.655 131.837 105.608C131.554 105.513 131.159 105.382 130.708 105.237C129.808 104.95 128.681 104.607 127.786 104.394C126.877 104.178 126.198 104.183 125.655 104.413ZM132.199 106.027L132.29 105.762L132.509 105.838L132.476 106.067L132.199 106.027Z" fill="#CB884B"/>
<path d="M96.1089 150.639H66.5106C62.4347 150.639 58.5901 153.438 57.9298 156.868L53.6263 179.044C52.9603 182.484 49.1139 185.272 45.0454 185.272H74.6344C78.7103 185.272 82.553 182.474 83.2152 179.044L87.4777 157.101C88.0541 154.117 90.9622 151.878 94.389 151.253L96.0343 151.02L96.1089 150.639Z" fill="white"/>
<path fill-rule="evenodd" clip-rule="evenodd" d="M96.6758 150.173H66.5108C62.2632 150.173 58.1837 153.083 57.472 156.78L53.1687 178.955C52.5543 182.128 48.9426 184.806 45.0457 184.806V185.739H74.6346C78.8824 185.739 82.9597 182.829 83.6734 179.132L87.9358 157.19C88.4631 154.459 91.1584 152.319 94.4639 151.714L96.4283 151.435L96.6758 150.173ZM49.2095 184.806C51.6825 183.662 53.612 181.572 54.0843 179.133L58.3879 156.956C58.9969 153.792 62.6066 151.106 66.5108 151.106H93.0285C90.0368 152.025 87.5686 154.172 87.02 157.013L82.7576 178.955C82.1468 182.12 78.5386 184.806 74.6346 184.806H49.2095Z" fill="#3C3C7A"/>
<path d="M2.07396 171.381C6.439 177.527 37.4606 182.849 44.2618 183.944C44.5766 184.053 44.9016 184.129 45.2318 184.172C46.685 184.358 54.2212 184.812 55.721 184.33C57.4875 183.761 60.8378 180.566 61.0187 180.072C61.1997 179.577 62.0969 175.423 62.0969 175.423C62.0969 175.423 59.754 175.078 58.4669 177.581C57.3084 179.838 54.7939 179.594 53.2437 179.46C52.5983 179.404 51.3615 178.443 51.5649 177.466C51.7682 176.488 52.9658 176.822 53.5982 176.4L54.0533 174.151L51.1769 174.119C50.4736 174.11 46.5917 175.636 44.1872 177.816C37.58 174.026 22.5616 165.607 14.9471 162.957L22.7445 144.336C22.7445 144.336 15.6186 138.214 3.53084 136.875C3.51032 136.875 -2.403 165.074 2.07396 171.381Z" fill="#E49647"/>
<path d="M42.3278 88.928C42.3278 88.928 43.9637 100.46 35.3531 105.157C35.3531 105.157 45.9056 113.148 54.0817 113.659C62.2577 114.171 58.7452 107.147 58.7452 107.147C58.7452 107.147 56.7324 103.176 57.3685 93.4236L42.3278 88.928Z" fill="#E49647"/>
<path d="M57.3737 93.4257L42.6632 89.0271C42.8591 89.7621 43.7116 99.9658 55.5475 103.092C56.2545 103.279 56.9727 103.068 57.6274 102.788C57.3066 100.598 57.1051 97.5221 57.3737 93.4257Z" fill="#D48845"/>
<path d="M42.423 88.9955C42.423 88.9955 45.9673 97.0764 55.5461 98.2442C64.0878 99.2869 68.2868 75.4695 55.6748 73.1919C41.8149 70.6904 43.4639 85.5278 43.4639 85.5278C43.4639 85.5278 41.4307 84.0354 40.4793 85.2162C39.5279 86.397 42.423 88.9955 42.423 88.9955Z" fill="#E49647"/>
<path d="M42.2512 87.921L43.3872 85.6713C46.0417 84.789 45.719 81.1608 44.7564 79.1947C45.3851 79.5677 46.5827 79.9072 48.6644 79.73C49.821 79.6312 47.59 77.6613 48.5096 77.5065C49.4293 77.3516 51.3469 79.4241 54.1842 79.6536C57.0214 79.883 53.9696 77.7247 53.7943 76.5887C53.6413 75.5926 55.5235 76.904 56.5066 77.5214C60.159 79.8401 63.2444 79.2786 63.5037 82.7445C63.5037 82.7445 66.4324 78.1855 66.4324 76.0291C66.4324 70.584 56.5588 65.4616 52.4717 65.872C48.8883 66.2376 46.2282 69.3174 45.6294 70.071C45.3308 69.6271 44.9167 69.273 44.4318 69.0469C43.5159 68.5768 42.6 68.5302 42.3799 68.9443C42.1598 69.3584 42.7381 70.0766 43.654 70.5467C43.7099 70.5747 43.764 70.6026 43.82 70.6269C42.4377 71.0205 40.4772 71.7461 39.0408 73.009C34.2449 77.1987 42.2512 87.921 42.2512 87.921Z" fill="#8B8BA3"/>
<path d="M43.4636 85.755C43.4636 85.755 41.906 84.05 40.479 85.2122C39.052 86.3743 42.8816 89.4541 42.8816 89.4541L43.4636 85.755Z" fill="#E49647"/>
<path d="M151.189 110.55H163.58L165.532 65.8484H149.238L151.189 110.55ZM165.986 124.477C165.986 122.261 165.184 120.449 163.58 119.041C161.946 117.604 159.919 116.885 157.498 116.885C155.078 116.885 153.065 117.604 151.462 119.041C149.828 120.449 149.011 122.261 149.011 124.477C149.011 126.694 149.828 128.521 151.462 129.959C153.065 131.366 155.078 132.07 157.498 132.07C159.919 132.07 161.946 131.366 163.58 129.959C165.184 128.521 165.986 126.694 165.986 124.477Z" fill="black"/>
<path d="M65.6697 158.805L64.3084 158.777L63.9845 159.623L63.5426 159.613L64.8529 156.373L65.2278 156.38L66.4015 159.674L65.9618 159.665L65.6697 158.805ZM64.4454 158.425L65.5501 158.448L65.0291 156.908L64.4454 158.425Z" fill="#3D3935"/>
<path d="M67.3582 156.677L67.3457 157.265L67.7966 157.275L67.7897 157.596L67.3389 157.586L67.3069 159.092C67.3049 159.189 67.3234 159.263 67.3625 159.313C67.4017 159.362 67.4696 159.387 67.5663 159.389C67.6139 159.39 67.6796 159.382 67.7633 159.366L67.7561 159.703C67.6469 159.731 67.5409 159.743 67.4383 159.741C67.2538 159.737 67.1158 159.678 67.0245 159.564C66.9332 159.45 66.8897 159.289 66.8941 159.083L66.9261 157.577L66.4864 157.568L66.4932 157.247L66.9329 157.256L66.9454 156.668L67.3582 156.677Z" fill="#3D3935"/>
<path d="M68.8535 156.709L68.841 157.297L69.2918 157.306L69.285 157.627L68.8342 157.618L68.8022 159.123C68.8001 159.221 68.8186 159.294 68.8578 159.345C68.8969 159.393 68.9648 159.419 69.0615 159.421C69.1092 159.422 69.1748 159.414 69.2585 159.398L69.2514 159.735C69.1421 159.762 69.0362 159.775 68.9335 159.773C68.749 159.769 68.6111 159.71 68.5197 159.596C68.4284 159.481 68.3849 159.321 68.3893 159.115L68.4213 157.609L67.9817 157.6L67.9885 157.279L68.4281 157.288L68.4406 156.7L68.8535 156.709Z" fill="#3D3935"/>
<path d="M70.7256 159.811C70.3982 159.804 70.1342 159.691 69.9335 159.471C69.7328 159.25 69.6363 158.958 69.644 158.596L69.6456 158.52C69.6507 158.279 69.7006 158.065 69.7954 157.878C69.8917 157.69 70.0228 157.545 70.1887 157.442C70.3561 157.338 70.5358 157.288 70.7277 157.292C71.0417 157.299 71.2835 157.408 71.4531 157.62C71.6228 157.831 71.7035 158.131 71.6952 158.518L71.6916 158.691L70.0557 158.656C70.0566 158.896 70.1217 159.091 70.2509 159.242C70.3817 159.391 70.5498 159.468 70.7551 159.473C70.9009 159.476 71.025 159.448 71.1274 159.391C71.2299 159.333 71.3201 159.256 71.3981 159.158L71.6461 159.361C71.4371 159.67 71.1302 159.82 70.7256 159.811ZM70.7205 157.633C70.5539 157.63 70.4127 157.688 70.297 157.808C70.1814 157.927 70.1078 158.096 70.0764 158.315L71.286 158.341L71.2866 158.31C71.2792 158.099 71.2261 157.934 71.1274 157.817C71.0287 157.698 70.8931 157.637 70.7205 157.633Z" fill="#3D3935"/>
<path d="M72.5903 157.377L72.5972 157.682C72.7866 157.453 73.0301 157.341 73.3277 157.347C73.838 157.358 74.0892 157.653 74.0814 158.232L74.0473 159.837L73.6344 159.828L73.6686 158.221C73.6708 158.046 73.6334 157.916 73.5563 157.83C73.4807 157.745 73.3604 157.701 73.1952 157.697C73.0613 157.694 72.943 157.728 72.8403 157.797C72.7376 157.867 72.6568 157.959 72.5977 158.075L72.561 159.805L72.1481 159.796L72.1997 157.368L72.5903 157.377Z" fill="#3D3935"/>
<path d="M75.2942 156.846L75.2817 157.434L75.7325 157.443L75.7257 157.764L75.2749 157.755L75.2429 159.26C75.2408 159.358 75.2593 159.431 75.2985 159.482C75.3376 159.53 75.4055 159.556 75.5023 159.558C75.5499 159.559 75.6155 159.551 75.6992 159.535L75.6921 159.872C75.5828 159.899 75.4769 159.912 75.3742 159.91C75.1897 159.906 75.0518 159.847 74.9605 159.733C74.8691 159.618 74.8256 159.458 74.83 159.252L74.862 157.746L74.4224 157.737L74.4292 157.416L74.8688 157.425L74.8813 156.837L75.2942 156.846Z" fill="#3D3935"/>
<path d="M76.6138 159.891L76.2009 159.882L76.2525 157.454L76.6654 157.463L76.6138 159.891ZM76.2327 156.81C76.2341 156.742 76.2554 156.686 76.2966 156.64C76.3392 156.595 76.4007 156.573 76.4811 156.575C76.5614 156.576 76.6219 156.601 76.6626 156.648C76.7033 156.695 76.7229 156.753 76.7215 156.82C76.72 156.887 76.698 156.943 76.6554 156.987C76.6128 157.031 76.5513 157.052 76.471 157.05C76.3906 157.049 76.3301 157.025 76.2894 156.979C76.2502 156.934 76.2313 156.877 76.2327 156.81Z" fill="#3D3935"/>
<path d="M77.1935 158.666C77.1986 158.429 77.2492 158.216 77.3455 158.028C77.4433 157.84 77.5758 157.696 77.7432 157.596C77.912 157.496 78.1028 157.449 78.3155 157.453C78.6444 157.46 78.9075 157.58 79.105 157.814C79.3039 158.047 79.3994 158.353 79.3913 158.733L79.3907 158.763C79.3857 158.999 79.3358 159.21 79.241 159.397C79.1478 159.582 79.016 159.725 78.8456 159.826C78.6768 159.928 78.4837 159.976 78.2665 159.971C77.9392 159.964 77.676 159.844 77.4771 159.611C77.2796 159.378 77.1849 159.073 77.1929 158.696L77.1935 158.666ZM77.6075 158.725C77.6018 158.994 77.659 159.211 77.779 159.377C77.9005 159.543 78.0654 159.628 78.2737 159.632C78.4835 159.637 78.6519 159.558 78.7789 159.396C78.9059 159.233 78.9725 159.002 78.9789 158.704C78.9845 158.438 78.9259 158.221 78.8029 158.054C78.6815 157.885 78.5166 157.799 78.3083 157.794C78.1045 157.79 77.9383 157.868 77.8099 158.029C77.6815 158.189 77.614 158.421 77.6075 158.725Z" fill="#3D3935"/>
<path d="M80.3254 157.541L80.3323 157.846C80.5217 157.617 80.7652 157.505 81.0628 157.512C81.5731 157.523 81.8243 157.818 81.8165 158.397L81.7824 160.001L81.3695 159.992L81.4037 158.386C81.4059 158.21 81.3685 158.08 81.2914 157.995C81.2158 157.909 81.0955 157.865 80.9303 157.861C80.7964 157.859 80.6781 157.892 80.5754 157.962C80.4727 158.031 80.3919 158.124 80.3328 158.239L80.2961 159.969L79.8832 159.961L79.9348 157.533L80.3254 157.541Z" fill="#3D3935"/>
<path d="M82.8866 159.102L82.5139 159.094L82.5347 156.748L82.9677 156.758L82.8866 159.102ZM82.4541 159.806C82.4555 159.739 82.4768 159.684 82.5179 159.639C82.5606 159.594 82.6221 159.572 82.7024 159.574C82.7828 159.576 82.8433 159.6 82.8839 159.647C82.9246 159.693 82.9443 159.75 82.9429 159.817C82.9414 159.884 82.9194 159.94 82.8768 159.984C82.8342 160.026 82.7727 160.047 82.6924 160.045C82.6121 160.043 82.5515 160.02 82.5108 159.976C82.4716 159.93 82.4527 159.874 82.4541 159.806Z" fill="#3D3935"/>
</svg>
