<svg width="94" height="25" viewBox="0 0 94 25" fill="none" xmlns="http://www.w3.org/2000/svg">
<path d="M24.8957 21.875L21.7823 25L9.33691 12.5L21.7823 0L25.6309 3.865L22.5208 6.99L21.7823 6.24833L15.5588 12.5L24.8957 21.875Z" fill="#B3474C"/>
<path d="M16.2973 21.135L12.447 25L0 12.5L12.447 0L15.5588 3.125L6.22352 12.5L12.447 18.75L13.1856 18.0083L16.2973 21.135Z" fill="#D19194"/>
<path d="M31.1177 0L18.6707 12.5L31.1177 25L43.5647 12.5L31.1177 0ZM31.1177 18.75L24.8958 12.5L31.1177 6.25L37.3412 12.5L31.1177 18.75Z" fill="#2E2E4D"/>
<path d="M50.2562 10.7883H52.3058C53.2817 10.7883 54.0053 10.5433 54.4766 10.0533C54.9463 9.56325 55.1819 8.91325 55.1819 8.10159C55.1819 7.31659 54.9496 6.70659 54.4832 6.26992C54.0169 5.83325 53.3763 5.61492 52.5597 5.61492C51.8229 5.61492 51.2072 5.81825 50.7093 6.22325C50.2114 6.62825 49.9641 7.15659 49.9641 7.80825H46.1172C46.1172 6.79159 46.3893 5.88159 46.9353 5.07492C47.4814 4.26825 48.2448 3.63825 49.2256 3.18325C50.2064 2.72825 51.2868 2.50159 52.4668 2.50159C54.5164 2.50159 56.1229 2.99492 57.2863 3.97825C58.448 4.96325 59.0305 6.31992 59.0305 8.04992C59.0305 8.94159 58.76 9.76159 58.219 10.5099C57.678 11.2583 56.9676 11.8333 56.0897 12.2349C57.1817 12.6266 57.9949 13.2149 58.5327 13.9999C59.0687 14.7849 59.3376 15.7116 59.3376 16.7799C59.3376 18.5099 58.7102 19.8949 57.4539 20.9383C56.1976 21.9816 54.5363 22.5016 52.4685 22.5016C50.5334 22.5016 48.9518 21.9899 47.722 20.9649C46.4922 19.9399 45.8782 18.5849 45.8782 16.8999H49.7251C49.7251 17.6316 49.9973 18.2283 50.5433 18.6916C51.0893 19.1549 51.7615 19.3866 52.5597 19.3866C53.4742 19.3866 54.1911 19.1433 54.7106 18.6583C55.23 18.1733 55.4889 17.5283 55.4889 16.7266C55.4889 14.7833 54.4235 13.8116 52.2942 13.8116H50.2579V10.7883H50.2562Z" fill="#2E2E4D"/>
<path d="M72.4485 17.125C72.4485 16.3683 72.183 15.7866 71.6502 15.38C71.1175 14.975 70.1599 14.5466 68.7741 14.0966C67.39 13.6466 66.293 13.2033 65.4864 12.7666C63.2858 11.5716 62.1855 9.96329 62.1855 7.93996C62.1855 6.88829 62.4809 5.94996 63.0701 5.12496C63.6609 4.29996 64.5073 3.65662 65.6126 3.19329C66.7179 2.72996 67.9576 2.49829 69.3334 2.49829C70.7175 2.49829 71.9506 2.74996 73.0343 3.25329C74.1164 3.75662 74.9578 4.46829 75.5569 5.38496C76.156 6.30329 76.4548 7.34496 76.4548 8.51329H72.4618C72.4618 7.62162 72.183 6.92829 71.6237 6.43496C71.0644 5.93996 70.2794 5.69329 69.267 5.69329C68.2912 5.69329 67.5311 5.89996 66.9901 6.31496C66.449 6.72996 66.1785 7.27496 66.1785 7.95329C66.1785 8.58662 66.4955 9.11662 67.1295 9.54496C67.7634 9.97329 68.6978 10.3733 69.9309 10.7483C72.2029 11.435 73.8575 12.285 74.8964 13.3016C75.9353 14.3183 76.4531 15.5833 76.4531 17.0983C76.4531 18.7833 75.8192 20.105 74.5496 21.0616C73.28 22.02 71.5722 22.4983 69.4247 22.4983C67.9344 22.4983 66.5752 22.225 65.352 21.6766C64.1272 21.1283 63.1929 20.3783 62.549 19.4233C61.905 18.47 61.5847 17.365 61.5847 16.1083H65.591C65.591 18.2566 66.8689 19.33 69.4247 19.33C70.374 19.33 71.1158 19.1366 71.6486 18.7483C72.183 18.3616 72.4485 17.8216 72.4485 17.125Z" fill="#2E2E4D"/>
<path d="M83.1512 15.3749V22.2333H79.1582V2.7666H86.7194C88.1748 2.7666 89.4544 3.03327 90.5597 3.56827C91.665 4.10327 92.5147 4.86327 93.1088 5.84827C93.703 6.83327 94.0001 7.95327 94.0001 9.20993C94.0001 11.1166 93.3495 12.6216 92.05 13.7216C90.7489 14.8233 88.9499 15.3733 86.6513 15.3733H83.1512V15.3749ZM83.1512 12.1249H86.7194C87.7749 12.1249 88.5814 11.8749 89.1358 11.3766C89.6901 10.8783 89.9672 10.1649 89.9672 9.23827C89.9672 8.28494 89.6884 7.51327 89.1291 6.92493C88.5698 6.3366 87.7981 6.03327 86.8123 6.0166H83.1512V12.1249V12.1249Z" fill="#2E2E4D"/>
</svg>
