<svg width="332" height="300" viewBox="0 0 332 300" fill="none" xmlns="http://www.w3.org/2000/svg">
<path d="M124.977 119.801C126.662 118.378 137.167 116.063 138.383 116.97C138.969 116.97 139.186 117.367 139.186 117.367C139.186 117.367 139.73 117.911 139.464 120.195C138.969 120.847 139.464 121.426 139.464 121.426C139.464 121.426 139.902 123.6 138.644 124.36C137.385 125.119 138.941 126.356 137.167 127.863C136.126 128.744 136.029 129.898 134.72 130.08C133.411 130.262 125.67 125.859 124.478 123.339C123.458 121.209 123.975 120.645 124.977 119.801Z" fill="#966229"/>
<path d="M135.422 212.513L331.814 212.513V-5.32269e-05L135.422 -5.32269e-05L135.422 212.513Z" fill="#F3F3F3"/>
<path d="M144.509 31.0709L317.744 31.0709V13.4836L144.509 13.4836V31.0709Z" fill="#DFDFDF"/>
<path d="M151.204 23.2105C152.925 23.2105 154.32 21.8156 154.32 20.095C154.32 18.3744 152.925 16.9796 151.204 16.9796C149.484 16.9796 148.089 18.3744 148.089 20.095C148.089 21.8156 149.484 23.2105 151.204 23.2105Z" fill="#F3F3F3"/>
<path fill-rule="evenodd" clip-rule="evenodd" d="M156.349 20.0949C156.349 19.7711 156.611 19.5087 156.935 19.5087H204.874C205.198 19.5087 205.461 19.7711 205.461 20.0949C205.461 20.4187 205.198 20.6812 204.874 20.6812H156.935C156.611 20.6812 156.349 20.4187 156.349 20.0949Z" fill="#F3F3F3"/>
<path d="M144.509 61.2625L317.744 61.2625V43.382L144.509 43.382V61.2625Z" fill="#DFDFDF"/>
<path d="M151.204 53.2168C152.925 53.2168 154.32 51.822 154.32 50.1014C154.32 48.3808 152.925 46.986 151.204 46.986C149.484 46.986 148.089 48.3808 148.089 50.1014C148.089 51.822 149.484 53.2168 151.204 53.2168Z" fill="#F3F3F3"/>
<path fill-rule="evenodd" clip-rule="evenodd" d="M156.349 50.1011C156.349 49.7774 156.611 49.5149 156.935 49.5149H204.874C205.198 49.5149 205.461 49.7774 205.461 50.1011C205.461 50.4249 205.198 50.6874 204.874 50.6874H156.935C156.611 50.6874 156.349 50.4249 156.349 50.1011Z" fill="#F3F3F3"/>
<path d="M144.509 91.1609L317.744 91.1609V73.5736L144.509 73.5736V91.1609Z" fill="#DFDFDF"/>
<path d="M151.204 83.218C152.925 83.218 154.32 81.8232 154.32 80.1026C154.32 78.382 152.925 76.9872 151.204 76.9872C149.484 76.9872 148.089 78.382 148.089 80.1026C148.089 81.8232 149.484 83.218 151.204 83.218Z" fill="#F3F3F3"/>
<path fill-rule="evenodd" clip-rule="evenodd" d="M156.349 80.1028C156.349 79.7791 156.611 79.5166 156.935 79.5166H204.874C205.198 79.5166 205.461 79.7791 205.461 80.1028C205.461 80.4266 205.198 80.6891 204.874 80.6891H156.935C156.611 80.6891 156.349 80.4266 156.349 80.1028Z" fill="#F3F3F3"/>
<path d="M144.509 121.352L317.744 121.352V103.472L144.509 103.472V121.352Z" fill="#DFDFDF"/>
<path d="M151.204 113.224C152.925 113.224 154.32 111.829 154.32 110.109C154.32 108.388 152.925 106.993 151.204 106.993C149.484 106.993 148.089 108.388 148.089 110.109C148.089 111.829 149.484 113.224 151.204 113.224Z" fill="#F3F3F3"/>
<path fill-rule="evenodd" clip-rule="evenodd" d="M156.349 110.109C156.349 109.785 156.611 109.522 156.935 109.522H204.874C205.198 109.522 205.461 109.785 205.461 110.109C205.461 110.432 205.198 110.695 204.874 110.695H156.935C156.611 110.695 156.349 110.432 156.349 110.109Z" fill="#F3F3F3"/>
<path d="M144.509 151.251H317.744V133.371H144.509V151.251Z" fill="#DFDFDF"/>
<path d="M151.204 143.23C152.925 143.23 154.32 141.835 154.32 140.115C154.32 138.394 152.925 136.999 151.204 136.999C149.484 136.999 148.089 138.394 148.089 140.115C148.089 141.835 149.484 143.23 151.204 143.23Z" fill="#F3F3F3"/>
<path fill-rule="evenodd" clip-rule="evenodd" d="M156.349 140.115C156.349 139.791 156.611 139.529 156.935 139.529H204.874C205.198 139.529 205.461 139.791 205.461 140.115C205.461 140.439 205.198 140.701 204.874 140.701H156.935C156.611 140.701 156.349 140.439 156.349 140.115Z" fill="#F3F3F3"/>
<path d="M87.667 80.2942C74.9832 94.9808 72.0969 126.755 78.5379 130.131C92.2607 137.332 129.307 124.223 129.307 124.223L130.491 118.778L89.347 117.892C89.347 117.892 97.9958 96.6678 99.8323 88.6679C101.711 80.4889 94.1288 72.816 87.667 80.2942Z" fill="#966229"/>
<path fill-rule="evenodd" clip-rule="evenodd" d="M81.3462 218.333C81.8319 218.333 82.2256 218.727 82.2256 219.212V270.304L52.2768 299.746C51.9305 300.086 51.3738 300.081 51.0333 299.735C50.6928 299.389 50.6976 298.832 51.0439 298.491L80.4668 269.566V219.212C80.4668 218.727 80.8605 218.333 81.3462 218.333Z" fill="#3C3C7A"/>
<path fill-rule="evenodd" clip-rule="evenodd" d="M88.8469 218.333C89.3326 218.333 89.7263 218.727 89.7263 219.212V269.566L119.151 298.491C119.498 298.832 119.502 299.389 119.162 299.735C118.822 300.081 118.265 300.086 117.918 299.746L87.9675 270.304V219.212C87.9675 218.727 88.3612 218.333 88.8469 218.333Z" fill="#3C3C7A"/>
<path fill-rule="evenodd" clip-rule="evenodd" d="M84.9519 269.647C85.4375 269.647 85.8312 270.041 85.8312 270.527V299.121C85.8312 299.606 85.4375 300 84.9519 300C84.4662 300 84.0725 299.606 84.0725 299.121V270.527C84.0725 270.041 84.4662 269.647 84.9519 269.647Z" fill="#3C3C7A"/>
<path d="M74.3018 212.247H96.5955C96.5955 214.092 95.8623 215.862 94.5572 217.168C93.252 218.473 91.4819 219.206 89.6362 219.206H81.2676C79.4219 219.206 77.6517 218.473 76.3466 217.168C75.0415 215.862 74.3083 214.092 74.3083 212.247H74.3018Z" fill="white"/>
<path fill-rule="evenodd" clip-rule="evenodd" d="M74.3017 212.247V211.514H97.3283V212.247C97.3283 214.287 96.5178 216.243 95.0753 217.686C93.6327 219.128 91.6762 219.939 89.6361 219.939H81.2676C79.2275 219.939 77.271 219.128 75.8284 217.686C74.3859 216.243 73.5754 214.287 73.5754 212.247H74.3017ZM75.0843 212.979C75.248 214.361 75.8711 215.656 76.8648 216.649C78.0324 217.817 79.6162 218.473 81.2676 218.473H89.6361C91.2875 218.473 92.8712 217.817 94.0389 216.649C95.0326 215.656 95.6557 214.361 95.8194 212.979H75.0843Z" fill="#3C3C7A"/>
<path d="M71.964 199.789H65.2221L62.595 185.149H69.3368L71.964 199.789Z" fill="white"/>
<path fill-rule="evenodd" clip-rule="evenodd" d="M61.719 184.416H69.9499L72.84 200.522H64.6091L61.719 184.416ZM63.471 185.882L65.8352 199.057H71.088L68.7238 185.882H63.471Z" fill="#3C3C7A"/>
<path d="M124.139 202.908V208.582C124.139 209.332 122.084 210.037 118.511 210.635C111.647 211.786 99.1856 212.555 84.9494 212.555C63.3081 212.555 45.762 210.776 45.762 208.582V202.908C45.762 204.019 50.2681 205.024 57.5297 205.746C64.5978 206.449 74.2756 206.881 84.9494 206.881C95.6233 206.881 105.303 206.446 112.371 205.746C114.729 205.511 116.795 205.248 118.511 204.961C122.084 204.363 124.139 203.658 124.139 202.908Z" fill="white"/>
<path fill-rule="evenodd" clip-rule="evenodd" d="M45.0293 202.908V208.582C45.0293 208.982 45.2324 209.293 45.4467 209.507C45.6594 209.719 45.9367 209.893 46.233 210.04C46.8288 210.335 47.6616 210.599 48.671 210.841C50.7017 211.328 53.6093 211.76 57.1664 212.121C64.2896 212.843 74.1123 213.288 84.9496 213.288C99.1985 213.288 111.708 212.518 118.632 211.358M45.0293 202.908H46.4949C46.4949 202.826 46.4671 202.781 46.462 202.773C46.4641 202.776 46.4706 202.784 46.484 202.797C46.5421 202.854 46.6682 202.947 46.9013 203.06C47.3639 203.286 48.0918 203.524 49.0913 203.76C51.0785 204.229 53.9828 204.657 57.6024 205.017C64.6398 205.716 74.2923 206.149 84.9496 206.149C95.6067 206.149 105.262 205.714 112.299 205.017C114.646 204.783 116.695 204.522 118.39 204.238M46.4612 202.772C46.4612 202.772 46.4615 202.773 46.462 202.773C46.4614 202.773 46.4612 202.772 46.4612 202.772ZM46.4949 204.486C47.0807 204.741 47.8476 204.972 48.7545 205.186C50.8358 205.678 53.8154 206.113 57.4574 206.475L57.4574 206.475C64.5561 207.181 74.2592 207.614 84.9496 207.614C95.6401 207.614 105.345 207.179 112.444 206.475L112.444 206.475C114.812 206.239 116.895 205.974 118.632 205.684L118.632 205.684C120.432 205.383 121.89 205.048 122.913 204.681C123.085 204.619 123.25 204.555 123.406 204.487V208.482C123.39 208.498 123.365 208.518 123.331 208.543C123.165 208.664 122.871 208.813 122.417 208.976C121.519 209.298 120.163 209.616 118.39 209.912L118.39 209.912C111.586 211.053 99.1729 211.823 84.9496 211.823C74.1456 211.823 64.3745 211.378 57.3143 210.663C53.7797 210.304 50.9482 209.88 49.0127 209.416C48.039 209.183 47.3319 208.948 46.8836 208.726C46.6739 208.622 46.5548 208.537 46.4949 208.482V204.486ZM46.4614 208.447C46.4614 208.447 46.4616 208.447 46.462 208.448C46.4616 208.447 46.4614 208.447 46.4614 208.447ZM123.44 208.447C123.44 208.447 123.439 208.449 123.436 208.453C123.438 208.449 123.44 208.447 123.44 208.447ZM123.436 202.779C123.427 202.794 123.406 202.836 123.406 202.908H124.872V208.582C124.872 209.128 124.502 209.503 124.194 209.728C123.863 209.969 123.419 210.174 122.913 210.355C121.89 210.722 120.432 211.057 118.632 211.358M123.44 202.773C123.44 202.773 123.438 202.775 123.436 202.779C123.426 202.791 123.397 202.821 123.331 202.869C123.165 202.99 122.871 203.139 122.417 203.302C121.519 203.624 120.163 203.942 118.39 204.238M123.44 202.773C123.44 202.773 123.439 202.775 123.436 202.779Z" fill="#3C3C7A"/>
<path d="M124.139 202.908C124.139 203.658 122.084 204.363 118.511 204.961C116.795 205.248 114.729 205.511 112.371 205.746C105.303 206.449 95.6255 206.881 84.9494 206.881C74.2734 206.881 64.5978 206.446 57.5297 205.746C50.2681 205.024 45.762 204.019 45.762 202.908C45.762 200.714 63.3081 198.935 84.9494 198.935C102.156 198.935 116.773 200.059 122.043 201.623C123.402 202.027 124.139 202.458 124.139 202.908Z" fill="white"/>
<path fill-rule="evenodd" clip-rule="evenodd" d="M46.4614 203.044C46.4614 203.044 46.4616 203.043 46.462 203.043C46.4616 203.043 46.4614 203.044 46.4614 203.044ZM46.6275 202.908C46.6917 202.866 46.7757 202.818 46.8836 202.764C47.3319 202.542 48.039 202.308 49.0127 202.074C50.9482 201.61 53.7797 201.186 57.3143 200.828C64.3745 200.112 74.1456 199.668 84.9496 199.668C93.5384 199.668 101.476 199.948 107.919 200.423C114.384 200.9 119.283 201.568 121.834 202.325M46.6275 202.908C46.6954 202.952 46.785 203.004 46.9013 203.06C47.3639 203.286 48.0918 203.524 49.0913 203.76C51.0784 204.229 53.9826 204.657 57.6021 205.017C64.6398 205.714 74.2903 206.149 84.9496 206.149C95.609 206.149 105.261 205.716 112.299 205.017C114.646 204.783 116.695 204.522 118.39 204.238M46.462 202.773C46.4614 202.773 46.4612 202.772 46.4612 202.772C46.4612 202.772 46.4615 202.773 46.462 202.773ZM57.1664 199.37C64.2896 198.647 74.1123 198.202 84.9496 198.202C93.5677 198.202 101.542 198.484 108.027 198.962C114.489 199.438 119.532 200.114 122.251 200.92L122.252 200.921C122.953 201.129 123.547 201.359 123.98 201.622C124.361 201.852 124.872 202.262 124.872 202.908C124.872 203.454 124.502 203.829 124.194 204.054C123.863 204.295 123.419 204.5 122.913 204.681C121.89 205.048 120.432 205.383 118.632 205.684L118.632 205.684C116.895 205.974 114.812 206.24 112.444 206.475L112.444 206.475C105.345 207.181 95.6422 207.614 84.9496 207.614C74.2568 207.614 64.5561 207.179 57.4576 206.475L57.4574 206.475C53.8154 206.113 50.8358 205.678 48.7545 205.186C47.7198 204.942 46.8672 204.675 46.258 204.377C45.9552 204.229 45.6726 204.055 45.4559 203.842C45.2381 203.627 45.0293 203.314 45.0293 202.908C45.0293 202.508 45.2324 202.197 45.4467 201.983C45.6594 201.771 45.9367 201.598 46.233 201.451C46.8288 201.156 47.6616 200.891 48.671 200.649C50.7017 200.162 53.6093 199.73 57.1664 199.37ZM121.834 202.325C122.492 202.521 122.946 202.709 123.221 202.875ZM123.221 202.875C123.24 202.887 123.258 202.898 123.274 202.908ZM123.437 203.04C123.437 203.04 123.436 203.039 123.435 203.037C123.436 203.039 123.437 203.04 123.437 203.04ZM123.436 202.779C123.438 202.775 123.44 202.773 123.44 202.773C123.44 202.773 123.439 202.775 123.436 202.779ZM123.274 202.908C123.101 203.022 122.823 203.156 122.417 203.302C121.519 203.624 120.163 203.942 118.39 204.238" fill="#3C3C7A"/>
<path d="M73.0881 187.152H60.6744C49.6939 187.152 39.2245 178.401 37.2867 167.607L32.8697 142.973C30.9342 132.18 38.2654 123.428 49.2459 123.428H61.6661C72.6466 123.428 83.116 132.18 85.0516 142.973L89.4707 167.607C91.4063 178.401 84.0751 187.152 73.0881 187.152Z" fill="white"/>
<path fill-rule="evenodd" clip-rule="evenodd" d="M36.7761 129.624C33.9618 132.983 32.6589 137.646 33.5911 142.844L38.0081 167.477C38.0081 167.478 38.0081 167.477 38.0081 167.477C39.8831 177.921 50.0482 186.419 60.6744 186.419H73.0881C78.3807 186.419 82.7487 184.315 85.5638 180.956C88.3788 177.597 89.6817 172.935 88.7495 167.736C88.7495 167.736 88.7495 167.736 88.7495 167.736L84.3303 143.103C82.4575 132.659 72.2924 124.161 61.6662 124.161H49.2459C43.9567 124.161 39.5904 126.265 36.7761 129.624ZM35.6526 128.683C38.7651 124.968 43.5547 122.696 49.2459 122.696H61.6662C73.0009 122.696 83.7746 131.7 85.7729 142.844L90.1921 167.478C91.1955 173.073 89.8005 178.183 86.6871 181.898C83.5737 185.613 78.7825 187.885 73.0881 187.885H60.6744C49.3397 187.885 38.566 178.88 36.5655 167.736L32.1485 143.103C31.1451 137.507 32.5401 132.398 35.6526 128.683Z" fill="#3C3C7A"/>
<path fill-rule="evenodd" clip-rule="evenodd" d="M80.4666 269.935C80.4666 269.449 80.8603 269.056 81.3459 269.056H88.8489C89.3346 269.056 89.7283 269.449 89.7283 269.935C89.7283 270.421 89.3346 270.814 88.8489 270.814H81.3459C80.8603 270.814 80.4666 270.421 80.4666 269.935Z" fill="#3C3C7A"/>
<path d="M72.9494 117.682C71.9082 105.863 60.3506 102.493 57.7386 97.2701C52.6253 87.055 71.9849 87.0912 66.8078 73.3674C66.8078 73.3674 76.8161 71.9446 76.6614 70.5286L90.9327 54.4374C90.9414 43.0656 82.7079 38.3294 78.0048 37.9414C78.0048 37.9414 63.2418 36.4895 58.7986 48.05C56.4178 54.2488 59.0791 64.212 63.0875 70.2485C67.4228 76.7743 43.3023 67.9148 36.3364 85.0802C31.7895 96.3326 48.7546 102.238 39.6194 111.309C27.6219 123.226 33.2263 140.961 57.5994 138.006C69.323 136.592 73.6421 125.526 72.9494 117.682Z" fill="#3C3C7A"/>
<path fill-rule="evenodd" clip-rule="evenodd" d="M61.6921 71.5517C61.9639 70.7892 62.8022 70.3914 63.5647 70.6631L67.739 72.1507C68.5015 72.4224 68.8993 73.2608 68.6276 74.0232C68.3559 74.7857 67.5176 75.1835 66.7551 74.9118L62.5807 73.4243C61.8183 73.1525 61.4204 72.3142 61.6921 71.5517Z" fill="#863539"/>
<path d="M61.9191 147.286C60.8342 142.625 57.617 139.391 54.7334 140.063C51.8498 140.734 50.3917 145.056 51.4765 149.717C52.5614 154.377 55.7786 157.611 58.6622 156.94C61.5458 156.269 63.0039 151.946 61.9191 147.286Z" fill="#3C3C7A"/>
<path fill-rule="evenodd" clip-rule="evenodd" d="M51.3889 139.507C51.3237 138.7 51.9249 137.993 52.7317 137.928L56.9743 137.585C57.7811 137.52 58.488 138.121 58.5532 138.928C58.6184 139.735 58.0171 140.442 57.2103 140.507L52.9677 140.85C52.1609 140.915 51.454 140.314 51.3889 139.507Z" fill="#863539"/>
<path d="M59.822 152.497C59.822 152.497 32.0022 192.352 60.7507 202.625C79.8714 209.459 118.272 208.81 141.851 207.608C147.51 207.319 152.903 205.116 157.146 201.359C161.388 197.602 164.228 192.515 165.199 186.932V186.932C165.863 183.127 165.165 179.21 163.227 175.869C161.289 172.528 158.236 169.977 154.604 168.664C138.243 162.753 110.64 152.483 93.9814 149.669C93.9814 149.669 80.265 156.857 59.822 152.497Z" fill="#863539"/>
<path d="M187.956 279.926C187.956 279.926 180.397 282.792 185.94 299.04H187.178C187.178 299.04 188.424 290.863 189.807 290.793C191.19 290.724 195.065 299.04 197.073 299.04H213.192C213.192 299.04 212.847 295.75 210.365 295.395C207.884 295.041 202.753 289.802 202.753 289.802L187.956 279.926Z" fill="#3C3C7A"/>
<path d="M159.719 170.858C169.742 173.999 178.248 242.472 202.745 289.802C202.745 289.802 189.357 288.847 187.956 279.926C187.956 279.926 147.316 238.033 146.231 213.025C145.146 188.017 153.556 168.929 159.719 170.858Z" fill="#A85F2B"/>
<path d="M144.478 279.926C144.478 279.926 136.918 282.793 142.462 299.04H143.699C143.699 299.04 144.945 290.863 146.329 290.794C147.712 290.724 151.587 299.04 153.595 299.04H169.714C169.714 299.04 169.368 295.75 166.887 295.395C164.405 295.041 159.275 289.802 159.275 289.802L144.478 279.926Z" fill="#3C3C7A"/>
<path d="M144.523 279.991C144.523 279.991 127.952 226.492 132.382 205.527C137.777 179.999 152.296 166.198 159.249 170.858C166.202 175.519 147.325 247.444 154.225 279.991C155.078 284.008 159.78 290.239 159.78 290.239C159.78 290.239 141.929 288.382 144.523 279.991Z" fill="#B6732B"/>
<path d="M50.7511 86.8703C53.7958 84.4041 65.9181 78.3017 79.8193 75.618C93.7205 72.9343 100.56 77.6666 102.681 80.8375C105.538 85.1022 101.121 90.1673 103.196 102.753C104.753 112.204 108.429 118.929 106.513 123.792C103.59 131.206 95.6604 131.334 95.4082 148.736C95.3125 155.235 63.591 155.611 59.9591 152.494C56.3272 149.378 42.6609 93.4208 50.7511 86.8703Z" fill="#863539"/>
<path d="M48.9226 96.5595C54.8623 115.034 80.4916 134.035 86.7271 130.292C100.018 122.322 108.104 83.8656 108.104 83.8656L104.071 80.0209L81.9016 114.692C81.9016 114.692 68.2795 96.2613 62.4042 90.5296C56.398 84.6686 45.8999 87.1499 48.9226 96.5595Z" fill="#B6732B"/>
<path d="M128.124 57.9892C130.497 52.2276 128.491 45.9381 123.643 43.9413C118.796 41.9446 112.942 44.9967 110.569 50.7583C108.196 56.52 110.202 62.8095 115.049 64.8062C119.897 66.803 125.751 63.7509 128.124 57.9892Z" fill="#F1F0FF"/>
<path fill-rule="evenodd" clip-rule="evenodd" d="M108.571 49.1103C106.291 54.7094 108.275 60.5452 112.634 62.3204C116.994 64.0955 122.49 61.3055 124.77 55.7065C127.05 50.1075 125.066 44.2717 120.707 42.4965C116.347 40.7213 110.851 43.5113 108.571 49.1103ZM112.082 63.6777C106.745 61.5047 104.73 54.6566 107.214 48.5576C109.698 42.4586 115.923 38.9661 121.26 41.1391C126.596 43.3122 128.611 50.1602 126.127 56.2593C123.643 62.3583 117.418 65.8508 112.082 63.6777Z" fill="#863539"/>
<path fill-rule="evenodd" clip-rule="evenodd" d="M119.534 58.8254C122.724 56.6651 124.093 52.1551 122.632 48.8201L123.974 48.2318C125.737 52.255 124.094 57.5077 120.355 60.039L119.534 58.8254Z" fill="#D1D1FF"/>
<path d="M112.748 66.0797L109.545 84.7915C109.51 85.2488 109.65 85.7022 109.936 86.0603C110.223 86.4184 110.635 86.6545 111.088 86.721V86.721C111.307 86.7544 111.529 86.7425 111.743 86.686C111.956 86.6295 112.156 86.5297 112.329 86.3927C112.502 86.2557 112.645 86.0845 112.749 85.8898C112.853 85.695 112.916 85.481 112.934 85.2609L116.136 66.5472C116.171 66.0899 116.031 65.6365 115.744 65.2784C115.458 64.9203 115.046 64.6842 114.593 64.6177V64.6177C114.374 64.5841 114.151 64.596 113.938 64.6525C113.724 64.7091 113.525 64.8091 113.351 64.9463C113.178 65.0836 113.035 65.2551 112.932 65.4501C112.828 65.6451 112.766 65.8594 112.748 66.0797V66.0797Z" fill="white"/>
<path fill-rule="evenodd" clip-rule="evenodd" d="M112.896 64.3721C113.148 64.1722 113.439 64.0265 113.75 63.9441C114.06 63.862 114.384 63.8446 114.701 63.893C115.338 63.9869 115.915 64.3183 116.317 64.8206C116.719 65.3235 116.916 65.9604 116.867 66.6026L116.864 66.6369L113.661 85.3552C113.632 85.663 113.541 85.9621 113.395 86.2351C113.244 86.5186 113.036 86.7678 112.784 86.9673C112.532 87.1668 112.241 87.3122 111.93 87.3944C111.62 87.4764 111.297 87.4939 110.98 87.4457C110.343 87.3518 109.766 87.0204 109.364 86.5181C108.962 86.0151 108.765 85.3783 108.814 84.736L108.817 84.7017L112.021 65.9861C112.05 65.6782 112.139 65.379 112.285 65.1058C112.436 64.8218 112.644 64.572 112.896 64.3721ZM112.748 66.0796L113.471 66.2033L110.274 84.8768C110.261 85.1389 110.344 85.397 110.509 85.6025C110.679 85.8157 110.925 85.9563 111.195 85.9959L111.088 86.721L111.199 85.9966C111.318 86.0148 111.439 86.0083 111.555 85.9776C111.671 85.9468 111.78 85.8925 111.874 85.818C111.968 85.7435 112.046 85.6503 112.103 85.5444C112.159 85.4384 112.194 85.322 112.203 85.2022L112.206 85.1696L115.407 66.4618C115.42 66.1997 115.337 65.9416 115.172 65.7362C115.002 65.5229 114.757 65.3823 114.486 65.3427L114.593 64.6177L114.481 65.342C114.363 65.3237 114.241 65.3301 114.125 65.3609C114.009 65.3916 113.901 65.446 113.807 65.5205C113.713 65.5951 113.635 65.6883 113.579 65.7943C113.522 65.9003 113.488 66.0167 113.479 66.1364L112.748 66.0796Z" fill="#3C3C7A"/>
<path d="M103.457 81.1228C104.067 79.0039 111.763 71.2974 113.029 71.3188C114.295 71.3402 122.453 68.3331 122.453 68.3331C122.453 68.3331 123.359 70.1713 120.274 71.6119C116.692 73.2849 116.404 74.4221 116.404 74.4221C116.404 74.4221 117.977 75.9865 117.353 77.3173C116.728 78.6482 118.709 78.8116 118.072 81.0507C117.697 82.3614 118.257 83.3746 117.27 84.2535C116.283 85.1324 107.4 85.7743 105.008 84.3413C102.977 83.1381 103.093 82.3809 103.457 81.1228Z" fill="#B6732B"/>
<path d="M66.3778 84.249C67.4276 81.7054 70.4851 68.0229 69.105 57.9555L79.9392 63.284C79.9392 63.284 89.9692 69.6697 80.1301 80.5757C74.0243 87.3248 66.3778 84.249 66.3778 84.249Z" fill="#B6732B"/>
<path d="M84.395 72.342C77.122 72.5813 71.0196 65.0933 69.1369 58.2001C69.1279 58.117 69.1174 58.0355 69.1053 57.9555L79.941 63.2824C79.941 63.2824 85.0343 66.5263 84.395 72.342Z" fill="#A85F2B"/>
<path d="M80.7793 43.516C84.0308 41.677 89.1762 44.824 90.4486 49.9209C91.7209 55.0179 91.3862 67.0749 87.2588 69.3708C80.5758 73.0916 71.5013 66.388 69.2172 62.5961C69.2172 62.5961 66.4905 58.3194 71.8125 56.2158C76.1857 54.4816 79.3211 50.9376 79.6017 47.7585C79.8823 44.5795 80.7793 43.516 80.7793 43.516Z" fill="#B6732B"/>
</svg>
